<svg version="1.1" id="Layer_1" xmlns="http://www.w3.org/2000/svg" xmlns:xlink="http://www.w3.org/1999/xlink" x="0px" y="0px"
	 width="100%" viewBox="0 0 718 101" enable-background="new 0 0 718 101" xml:space="preserve">
<path fill="#FCFDFC" opacity="1.000000" stroke="none" 
	d="
M532.000000,102.000000 
	C354.666656,102.000000 177.833328,102.000000 1.000000,102.000000 
	C1.000000,68.333336 1.000000,34.666668 1.000000,1.000000 
	C240.333328,1.000000 479.666656,1.000000 719.000000,1.000000 
	C719.000000,34.666668 719.000000,68.333336 719.000000,102.000000 
	C656.833313,102.000000 594.666687,102.000000 532.000000,102.000000 
M45.408905,43.391594 
	C45.369144,47.792263 45.217514,52.195663 45.325020,56.592731 
	C45.411087,60.112617 43.045757,64.157333 48.144192,66.963982 
	C50.265629,66.963982 52.387070,66.963982 54.597954,66.963982 
	C54.597954,51.754108 54.597954,36.880783 54.597954,21.942131 
	C53.300541,21.873514 52.309994,21.785543 51.318584,21.774343 
	C43.695229,21.688204 43.691509,21.691771 41.559315,29.077717 
	C39.520161,36.141354 37.489719,43.207504 35.455448,50.272549 
	C32.615356,43.789185 30.837463,37.342022 28.985014,30.916353 
	C26.199717,21.254875 26.177277,21.257582 16.031067,21.922184 
	C15.766402,21.939520 15.521617,22.260344 15.237483,22.460859 
	C15.237483,37.188446 15.237483,51.923283 15.237483,66.726250 
	C17.861511,66.726250 20.245810,66.726250 23.013098,66.726250 
	C23.013098,57.419491 23.013098,48.400562 23.013098,39.381638 
	C23.275883,39.338440 23.538668,39.295238 23.801453,39.252041 
	C26.350052,46.878242 28.898651,54.504440 31.466021,62.186806 
	C34.802998,61.421978 38.663528,63.856880 39.967422,58.837036 
	C41.367195,53.448105 43.143486,48.156971 45.408905,43.391594 
M339.282379,67.202667 
	C341.454468,66.372002 343.626556,65.541336 345.770386,64.721481 
	C345.907379,72.099594 341.977936,73.945175 333.508545,70.203865 
	C331.830353,71.809952 330.099579,73.466331 328.280884,75.206886 
	C333.703430,80.611610 339.570190,80.950485 345.817413,79.167892 
	C350.630981,77.794380 353.821045,74.434929 353.971954,69.550797 
	C354.325531,58.104801 354.084991,46.640450 354.084991,34.869080 
	C351.111389,35.714611 347.304077,32.538197 345.404358,37.264969 
	C340.221802,33.666779 337.437225,33.114758 333.537201,35.217091 
	C329.249207,37.528580 327.843506,41.556976 327.699585,46.088039 
	C327.583435,49.745823 327.553925,53.432713 327.875244,57.072323 
	C328.469177,63.800014 331.660461,66.716690 339.282379,67.202667 
M476.501343,45.539150 
	C476.501343,42.080334 476.501343,38.621517 476.501343,34.181599 
	C473.159882,36.019638 469.230652,32.390240 467.347382,37.493580 
	C463.853333,34.159073 459.945221,32.871662 455.535431,35.218979 
	C451.240173,37.505302 449.867706,41.549309 449.683716,46.075859 
	C449.555389,49.233566 449.577728,52.408024 449.739868,55.564362 
	C449.970154,60.048069 451.047028,64.260994 455.632111,66.279961 
	C459.938904,68.176414 464.039154,67.625481 468.107758,64.514809 
	C467.538452,67.002724 466.907837,70.341003 465.247650,70.972519 
	C462.553101,71.997490 459.183868,71.248695 456.099457,71.248695 
	C456.009979,70.818680 455.920471,70.388672 455.830994,69.958656 
	C454.053802,71.605667 452.276611,73.252686 450.298492,75.085892 
	C455.374268,80.564957 461.178345,80.921082 467.408936,79.275963 
	C473.667023,77.623581 476.180176,73.068626 476.331726,67.007820 
	C476.502350,60.184429 476.453827,53.355556 476.501343,45.539150 
M247.393570,47.211079 
	C249.978058,47.781216 252.544754,48.457775 255.151627,48.894093 
	C258.290833,49.419506 261.309418,50.172295 261.005585,54.161045 
	C260.693024,58.263794 257.376953,59.315254 254.137161,58.992775 
	C249.041016,58.485527 244.015778,57.266220 238.442505,56.254349 
	C237.680374,57.639465 236.533783,59.723305 235.384918,61.811260 
	C241.996078,67.207802 249.334076,67.756683 256.903687,67.037689 
	C264.544739,66.311913 269.147369,61.536545 269.584473,54.189270 
	C269.995361,47.282375 266.404816,42.920933 258.703430,41.041302 
	C255.653030,40.296814 252.398376,40.044209 249.591782,38.779652 
	C247.995895,38.060589 246.326126,35.819908 246.175323,34.131744 
	C246.061981,32.863110 248.079636,30.632832 249.566589,30.168188 
	C251.966003,29.418402 254.775818,29.360035 257.289459,29.767424 
	C259.958771,30.200045 262.484985,31.515642 265.341888,32.542011 
	C266.448212,30.230825 267.478638,28.078112 268.553101,25.833401 
	C261.573059,21.389915 254.708359,19.840948 247.211060,22.016443 
	C240.940048,23.836113 237.452728,28.367582 237.327133,34.749653 
	C237.198975,41.261345 239.799728,44.707623 247.393570,47.211079 
M603.047302,36.336830 
	C603.047302,31.562181 603.047302,26.787533 603.047302,22.070347 
	C599.884033,22.070347 597.303772,22.070347 594.541016,22.070347 
	C594.541016,37.110207 594.541016,51.851715 594.541016,67.502022 
	C597.931396,66.872452 600.922424,66.317039 604.786621,65.599472 
	C609.705688,70.271584 620.320374,67.191559 621.014587,57.129734 
	C621.311401,52.827679 621.382812,48.462360 621.010315,44.173248 
	C620.480042,38.069489 615.960815,33.600185 610.713379,34.141514 
	C608.122314,34.408810 605.674011,36.059433 603.047302,36.336830 
M399.304108,53.487553 
	C399.304108,57.925167 399.304108,62.362782 399.304108,66.774628 
	C402.541168,66.774628 405.133575,66.774628 408.026093,66.774628 
	C408.026093,60.567886 408.131226,54.604156 407.987671,48.646420 
	C407.898010,44.924816 409.053040,42.274269 413.112854,42.311432 
	C417.190277,42.348759 418.229248,45.102371 418.149017,48.764671 
	C418.018768,54.711086 418.113892,60.662434 418.113892,66.800018 
	C421.174164,66.800018 423.750122,66.800018 426.690735,66.800018 
	C426.690735,59.463978 427.200409,52.304302 426.572815,45.245739 
	C425.599548,34.299507 417.309753,30.901901 407.996765,37.639183 
	C407.996765,32.310829 407.996765,27.248178 407.996765,21.985710 
	C405.022339,21.985710 402.436981,21.985710 399.304108,21.985710 
	C399.304108,32.267120 399.304108,42.379677 399.304108,53.487553 
M228.788681,62.298923 
	C228.562439,55.659294 228.959778,48.923370 227.953049,42.404266 
	C226.677292,34.143002 218.219330,31.513958 211.629410,36.769432 
	C211.239960,37.080017 210.727341,37.236172 209.708221,37.746563 
	C209.708221,32.051388 209.708221,26.972275 209.708221,22.137264 
	C206.736954,22.137264 204.162445,22.137264 201.595123,22.137264 
	C201.595123,37.263138 201.595123,52.008175 201.595123,66.792908 
	C204.486420,66.792908 207.080795,66.792908 210.029785,66.792908 
	C210.029785,60.607624 210.136581,54.646423 209.990677,48.691410 
	C209.899689,44.977978 211.007355,42.302139 215.090576,42.322311 
	C219.173965,42.342484 220.231277,45.080441 220.154236,48.746956 
	C220.029251,54.695488 220.120590,60.648567 220.120590,67.583305 
	C223.235031,65.262321 228.696381,70.846504 228.788681,62.298923 
M390.788055,60.376186 
	C390.544556,54.238495 390.918610,47.995888 389.898315,41.990166 
	C388.673828,34.782784 380.710114,31.810209 374.807770,35.713688 
	C373.954926,36.277699 373.166443,36.939003 371.757202,38.000385 
	C371.757202,32.119423 371.757202,27.013159 371.757202,22.105995 
	C368.820099,22.105995 366.236542,22.105995 363.571533,22.105995 
	C363.571533,37.198322 363.571533,51.943199 363.571533,66.826187 
	C366.433441,66.826187 369.024261,66.826187 372.026428,66.826187 
	C372.026428,60.850037 372.131531,55.061817 371.988678,49.279724 
	C371.896790,45.559444 372.494446,42.370895 376.986542,42.318375 
	C381.453278,42.266155 382.225494,45.375652 382.147095,49.135815 
	C382.023865,55.046585 382.114380,60.961815 382.114380,66.650925 
	C385.438995,66.650925 388.010193,66.650925 390.788086,66.650925 
	C390.788086,64.634460 390.788086,62.985703 390.788055,60.376186 
M531.040771,35.624908 
	C531.040771,31.044050 531.040771,26.463190 531.040771,22.153408 
	C527.719482,22.153408 525.146545,22.153408 522.297729,22.153408 
	C522.297729,29.850830 522.297729,37.159801 522.297729,44.468777 
	C522.297729,51.913399 522.297729,59.358025 522.297729,66.779572 
	C525.509766,66.779572 528.110352,66.779572 531.030151,66.779572 
	C531.030151,60.745010 531.142822,54.944927 530.990112,49.151844 
	C530.890076,45.357071 531.689209,42.280533 536.132263,42.312553 
	C540.625916,42.344933 541.235107,45.598362 541.172119,49.281559 
	C541.073181,55.064667 541.145874,60.850716 541.145874,66.785370 
	C544.214722,66.785370 546.792114,66.785370 549.166138,66.785370 
	C549.166138,58.608940 549.898804,50.589394 548.968201,42.767754 
	C547.958191,34.279686 539.851807,31.527443 532.842590,36.469093 
	C532.444702,36.749580 531.644104,36.458794 531.040771,35.624908 
M100.304535,33.524849 
	C100.304535,44.620743 100.304535,55.716633 100.304535,66.755501 
	C103.594513,66.755501 106.202911,66.755501 107.551399,66.755501 
	C109.465179,62.153973 111.100449,58.222084 113.197495,53.179886 
	C117.969971,60.286125 118.133400,70.756042 129.758942,66.324966 
	C126.927940,60.887287 124.145782,55.266075 121.087616,49.799263 
	C119.774292,47.451553 119.665138,45.740673 121.573692,43.632736 
	C123.866379,41.100548 125.754341,38.201908 128.004349,35.213856 
	C122.456345,33.994560 118.287186,34.565197 115.569740,39.855846 
	C114.114159,42.689735 111.788658,45.076801 109.038757,48.759663 
	C109.038757,38.973957 109.038757,30.583466 109.038757,21.989140 
	C106.020988,21.989140 103.431046,21.989140 100.305672,21.989140 
	C100.305672,25.619062 100.305672,29.076876 100.304535,33.524849 
M301.029633,61.397694 
	C301.030273,57.233051 301.145477,53.064312 300.996826,48.905006 
	C300.867523,45.287766 301.765533,42.402115 305.880585,42.312260 
	C310.280060,42.216183 311.255493,45.213444 311.180115,49.029541 
	C311.062836,54.964012 311.149109,60.902508 311.149109,66.686813 
	C314.375610,66.686813 316.956299,66.686813 319.804993,66.686813 
	C319.804993,60.043839 319.810883,53.736309 319.797882,47.428818 
	C319.796173,46.599094 319.753723,45.761539 319.635803,44.941177 
	C318.086182,34.161915 309.976654,30.811672 301.524353,37.448887 
	C300.136871,34.200962 299.593781,34.069973 292.527863,35.362667 
	C292.527863,45.747627 292.527863,56.168163 292.527863,66.806488 
	C295.352112,66.806488 297.940430,66.806488 301.029510,66.806488 
	C301.029510,65.261002 301.029510,63.815189 301.029633,61.397694 
M80.805855,65.335518 
	C81.467445,64.921783 82.129036,64.508049 82.790627,64.094315 
	C84.243713,69.931442 88.357391,65.899254 91.227570,66.852554 
	C91.227570,55.955082 91.227570,45.536209 91.227570,35.109818 
	C88.378761,35.109818 85.819786,35.109818 83.015404,35.109818 
	C83.015404,41.425083 82.960701,47.398235 83.035973,53.369751 
	C83.080963,56.939476 81.825974,59.140484 77.907372,59.117992 
	C73.885269,59.094906 72.930573,56.704540 72.989967,53.203835 
	C73.093353,47.110985 73.018723,41.015118 73.018723,35.138611 
	C69.784729,35.138611 67.206047,35.138611 64.652725,35.138611 
	C64.652725,42.795406 64.158615,50.131695 64.779892,57.372280 
	C65.528290,66.094398 72.055679,69.409325 80.805855,65.335518 
M574.886475,58.582710 
	C568.298950,59.674370 567.049316,58.682072 567.023926,52.252739 
	C567.001099,46.483070 567.019165,40.713242 567.019165,35.111397 
	C563.815186,35.111397 561.229431,35.111397 558.295532,35.111397 
	C558.295532,41.745079 558.110046,48.050396 558.334961,54.341042 
	C558.774719,66.641167 566.384827,70.613365 576.578064,64.308807 
	C578.227539,69.305481 582.288635,65.946800 585.187134,67.079781 
	C585.187134,56.175583 585.187134,45.628353 585.187134,34.948757 
	C582.409424,34.948757 579.960999,34.948757 577.018616,34.948757 
	C577.018616,40.563042 577.156128,46.017262 576.951721,51.458645 
	C576.868774,53.665241 576.040955,55.843849 574.886475,58.582710 
M659.655029,53.464794 
	C660.196106,63.459892 664.557373,67.507225 674.482544,67.224937 
	C681.365356,67.029175 685.938965,63.446171 687.023926,57.400013 
	C689.112488,45.760479 686.535156,37.634552 679.728455,35.154202 
	C671.230530,32.057590 658.884216,34.968288 659.644287,48.636257 
	C659.718201,49.964409 659.656982,51.300068 659.655029,53.464794 
M137.417282,37.909618 
	C133.131119,42.148678 133.598434,47.605869 133.657318,52.913471 
	C133.737900,60.179668 136.551010,64.566254 142.248917,66.624878 
	C148.112747,68.743439 155.696014,66.893364 159.789505,62.369556 
	C157.306091,59.033783 154.771835,57.652473 150.259521,59.684471 
	C146.059052,61.576035 142.883179,59.046566 141.607712,53.963764 
	C148.123901,53.963764 154.538605,53.963764 161.112183,53.963764 
	C161.143173,46.716599 160.839981,39.905731 154.258179,35.905518 
	C148.708344,32.532509 143.095566,33.611176 137.417282,37.909618 
M173.725128,57.931194 
	C168.228302,55.412769 168.615051,61.140747 165.815186,62.990536 
	C172.580673,67.730415 179.739899,68.188889 186.723389,66.546432 
	C189.548553,65.881989 192.813507,62.762489 193.924286,59.980091 
	C196.759659,52.877899 192.738373,47.957710 184.427383,46.959469 
	C181.252991,46.578194 178.122147,45.834469 174.971451,45.255920 
	C175.060501,44.318512 175.149536,43.381104 175.238586,42.443695 
	C178.318939,42.443695 181.898895,41.428581 184.378586,42.649017 
	C190.035156,45.433010 191.906662,42.088573 194.272064,38.067513 
	C187.612656,34.222878 180.877197,32.711563 173.678482,35.356533 
	C168.968002,37.087269 167.304794,40.840939 167.690842,45.679070 
	C168.050247,50.183613 170.581329,52.502632 174.938019,53.133675 
	C178.202911,53.606575 181.480789,54.061169 184.690628,54.795944 
	C185.564590,54.996006 186.213272,56.180290 186.965332,56.912880 
	C186.183411,57.632900 185.388657,58.980400 184.621796,58.964687 
	C181.240723,58.895435 177.867691,58.433300 173.725128,57.931194 
M502.115601,54.364513 
	C502.120361,65.808441 505.510437,68.990540 514.726807,66.297661 
	C514.726807,63.975857 514.726807,61.678730 514.726807,59.381603 
	C514.223572,59.468361 513.720276,59.555119 513.217041,59.641876 
	C508.424622,54.701374 512.159302,48.095669 510.735352,42.380173 
	C512.386780,41.962978 513.596069,41.657471 514.713928,41.375072 
	C514.713928,39.145256 514.713928,37.182434 514.713928,35.250744 
	C507.609192,34.352211 512.707458,28.344383 510.212372,25.352642 
	C507.779816,25.352642 505.199554,25.352642 502.510651,25.352642 
	C501.236847,28.986406 504.001648,33.719387 499.055176,36.166245 
	C498.481079,36.450260 499.121002,41.326496 499.689392,41.432213 
	C503.157990,42.077385 501.984558,44.532379 502.091187,46.410461 
	C502.223236,48.735641 502.118195,51.074291 502.115601,54.364513 
M282.218994,34.769260 
	C280.264984,34.769260 278.310974,34.769260 276.189301,34.769260 
	C276.189301,45.679760 276.189301,56.219975 276.189301,66.741127 
	C279.039307,66.741127 281.607391,66.741127 284.502136,66.741127 
	C284.502136,56.503368 284.525360,46.546825 284.444336,36.591133 
	C284.439484,35.994923 283.601196,35.405491 282.218994,34.769260 
M646.509277,67.026718 
	C648.420288,67.026718 650.331299,67.026718 652.250244,67.026718 
	C652.250244,55.933216 652.250244,45.524860 652.250244,35.024372 
	C649.387329,35.024372 646.814697,35.024372 643.919312,35.024372 
	C643.919312,45.238842 643.889282,55.189220 643.989990,65.138283 
	C643.996399,65.770798 645.018311,66.393028 646.509277,67.026718 
M493.470581,46.503830 
	C493.470581,42.735992 493.470581,38.968159 493.470581,35.033623 
	C490.435486,35.033623 487.877716,35.033623 485.263092,35.033623 
	C485.263092,45.788555 485.263092,56.298931 485.263092,66.714409 
	C488.184631,66.714409 490.772186,66.714409 493.469543,66.714409 
	C493.469543,60.117744 493.469543,53.809643 493.470581,46.503830 
M437.466675,67.045227 
	C439.054443,66.967972 440.642181,66.890709 442.292267,66.810417 
	C442.292267,63.880455 442.292267,61.313427 442.292267,58.526878 
	C439.480682,58.526878 436.941681,58.526878 433.962494,58.526878 
	C433.962494,60.565151 433.648651,62.422009 434.072357,64.091713 
	C434.356842,65.212975 435.685944,66.069176 437.466675,67.045227 
M636.585144,60.861046 
	C634.911621,55.342545 631.040100,59.433910 628.197266,58.423923 
	C628.197266,61.533192 628.197266,64.117134 628.197266,66.814323 
	C631.005493,66.814323 633.568237,66.814323 636.585144,66.814323 
	C636.585144,64.961395 636.585144,63.342148 636.585144,60.861046 
M484.906738,27.414845 
	C486.595490,32.836559 490.410919,29.084826 493.279327,29.931074 
	C493.279327,26.951023 493.279327,24.546787 493.279327,21.963661 
	C490.470032,21.963661 487.914948,21.963661 484.904816,21.963661 
	C484.904816,23.588345 484.904816,25.021812 484.906738,27.414845 
M652.540894,27.307732 
	C652.540894,25.558689 652.540894,23.809645 652.540894,22.010462 
	C649.349915,22.010462 646.794373,22.010462 644.191406,22.010462 
	C644.191406,24.810122 644.191406,27.343300 644.191406,31.055454 
	C647.366394,29.970112 649.960327,29.083416 652.540894,27.307732 
M275.919922,23.578291 
	C275.919922,25.658125 275.919922,27.737959 275.919922,29.889153 
	C278.975433,29.889153 281.529755,29.889153 284.240417,29.889153 
	C284.240417,27.128695 284.240417,24.601227 284.240417,21.418493 
	C281.228302,21.855658 278.598511,22.237333 275.919922,23.578291 
z"/>
<path fill="#0E0A0F" opacity="1.000000" stroke="none" 
	d="
M44.755474,42.823162 
	C43.143486,48.156971 41.367195,53.448105 39.967422,58.837036 
	C38.663528,63.856880 34.802998,61.421978 31.466021,62.186806 
	C28.898651,54.504440 26.350052,46.878242 23.801453,39.252041 
	C23.538668,39.295238 23.275883,39.338440 23.013098,39.381638 
	C23.013098,48.400562 23.013098,57.419491 23.013098,66.726250 
	C20.245810,66.726250 17.861511,66.726250 15.237483,66.726250 
	C15.237483,51.923283 15.237483,37.188446 15.237483,22.460859 
	C15.521617,22.260344 15.766402,21.939520 16.031067,21.922184 
	C26.177277,21.257582 26.199717,21.254875 28.985014,30.916353 
	C30.837463,37.342022 32.615356,43.789185 35.455448,50.272549 
	C37.489719,43.207504 39.520161,36.141354 41.559315,29.077717 
	C43.691509,21.691771 43.695229,21.688204 51.318584,21.774343 
	C52.309994,21.785543 53.300541,21.873514 54.597954,21.942131 
	C54.597954,36.880783 54.597954,51.754108 54.597954,66.963982 
	C52.387070,66.963982 50.265629,66.963982 47.668266,66.474976 
	C47.108795,57.650215 47.025246,49.314453 47.033577,40.652504 
	C46.824387,39.968605 46.523315,39.610893 46.222244,39.253181 
	C45.870937,39.845036 45.519630,40.436893 45.070518,41.320839 
	C44.900303,42.016342 44.827888,42.419750 44.755474,42.823162 
z"/>
<path fill="#080608" opacity="1.000000" stroke="none" 
	d="
M338.865021,67.198441 
	C331.660461,66.716690 328.469177,63.800014 327.875244,57.072323 
	C327.553925,53.432713 327.583435,49.745823 327.699585,46.088039 
	C327.843506,41.556976 329.249207,37.528580 333.537201,35.217091 
	C337.437225,33.114758 340.221802,33.666779 345.403259,37.260429 
	C347.304077,32.538197 351.111389,35.714611 354.084991,34.869080 
	C354.084991,46.640450 354.325531,58.104801 353.971954,69.550797 
	C353.821045,74.434929 350.630981,77.794380 345.817413,79.167892 
	C339.570190,80.950485 333.703430,80.611610 328.280884,75.206886 
	C330.099579,73.466331 331.830353,71.809952 333.508545,70.203865 
	C341.977936,73.945175 345.907379,72.099594 345.770386,64.721481 
	C343.626556,65.541336 341.454468,66.372002 338.865021,67.198441 
M345.747284,45.294472 
	C343.756805,44.229225 341.376831,41.943081 339.878632,42.421036 
	C338.170807,42.965858 336.792419,45.830452 336.119568,47.955563 
	C335.498230,49.917831 335.897461,52.242001 336.030579,54.395439 
	C336.237732,57.746376 338.199768,59.760029 341.478424,59.546192 
	C344.477051,59.350616 346.168701,57.412678 345.984955,54.120056 
	C345.836945,51.467651 345.922119,48.802235 345.747284,45.294472 
z"/>
<path fill="#080609" opacity="1.000000" stroke="none" 
	d="
M476.500977,46.034107 
	C476.453827,53.355556 476.502350,60.184429 476.331726,67.007820 
	C476.180176,73.068626 473.667023,77.623581 467.408936,79.275963 
	C461.178345,80.921082 455.374268,80.564957 450.298492,75.085892 
	C452.276611,73.252686 454.053802,71.605667 455.830994,69.958656 
	C455.920471,70.388672 456.009979,70.818680 456.099457,71.248695 
	C459.183868,71.248695 462.553101,71.997490 465.247650,70.972519 
	C466.907837,70.341003 467.538452,67.002724 468.107758,64.514809 
	C464.039154,67.625481 459.938904,68.176414 455.632111,66.279961 
	C451.047028,64.260994 449.970154,60.048069 449.739868,55.564362 
	C449.577728,52.408024 449.555389,49.233566 449.683716,46.075859 
	C449.867706,41.549309 451.240173,37.505302 455.535431,35.218979 
	C459.945221,32.871662 463.853333,34.159073 467.347382,37.493580 
	C469.230652,32.390240 473.159882,36.019638 476.501343,34.181599 
	C476.501343,38.621517 476.501343,42.080334 476.500977,46.034107 
M466.460602,43.166153 
	C461.945679,41.287231 458.916748,42.121620 458.291809,45.957222 
	C457.765900,49.185204 457.708557,52.687847 458.440063,55.837521 
	C458.798096,57.379234 461.391724,59.328735 463.027954,59.380707 
	C464.601715,59.430702 467.506775,57.382183 467.623291,56.061287 
	C467.979004,52.029827 467.272888,47.904678 466.460602,43.166153 
z"/>
<path fill="#0A0809" opacity="1.000000" stroke="none" 
	d="
M247.001053,47.129776 
	C239.799728,44.707623 237.198975,41.261345 237.327133,34.749653 
	C237.452728,28.367582 240.940048,23.836113 247.211060,22.016443 
	C254.708359,19.840948 261.573059,21.389915 268.553101,25.833401 
	C267.478638,28.078112 266.448212,30.230825 265.341888,32.542011 
	C262.484985,31.515642 259.958771,30.200045 257.289459,29.767424 
	C254.775818,29.360035 251.966003,29.418402 249.566589,30.168188 
	C248.079636,30.632832 246.061981,32.863110 246.175323,34.131744 
	C246.326126,35.819908 247.995895,38.060589 249.591782,38.779652 
	C252.398376,40.044209 255.653030,40.296814 258.703430,41.041302 
	C266.404816,42.920933 269.995361,47.282375 269.584473,54.189270 
	C269.147369,61.536545 264.544739,66.311913 256.903687,67.037689 
	C249.334076,67.756683 241.996078,67.207802 235.384918,61.811260 
	C236.533783,59.723305 237.680374,57.639465 238.442505,56.254349 
	C244.015778,57.266220 249.041016,58.485527 254.137161,58.992775 
	C257.376953,59.315254 260.693024,58.263794 261.005585,54.161045 
	C261.309418,50.172295 258.290833,49.419506 255.151627,48.894093 
	C252.544754,48.457775 249.978058,47.781216 247.001053,47.129776 
z"/>
<path fill="#0D0A0D" opacity="1.000000" stroke="none" 
	d="
M603.104187,36.710487 
	C605.674011,36.059433 608.122314,34.408810 610.713379,34.141514 
	C615.960815,33.600185 620.480042,38.069489 621.010315,44.173248 
	C621.382812,48.462360 621.311401,52.827679 621.014587,57.129734 
	C620.320374,67.191559 609.705688,70.271584 604.786621,65.599472 
	C600.922424,66.317039 597.931396,66.872452 594.541016,67.502022 
	C594.541016,51.851715 594.541016,37.110207 594.541016,22.070347 
	C597.303772,22.070347 599.884033,22.070347 603.047302,22.070347 
	C603.047302,26.787533 603.047302,31.562181 603.104187,36.710487 
M612.943604,48.792236 
	C612.959900,45.070877 611.867554,41.992817 607.519714,42.067547 
	C603.089111,42.143700 602.939392,45.552105 602.992249,48.884003 
	C603.023865,50.878227 602.461365,53.091473 603.152954,54.808716 
	C603.894958,56.651245 605.867188,59.363987 607.170654,59.292500 
	C609.093445,59.187050 611.452515,57.304379 612.581665,55.518414 
	C613.497986,54.069263 612.877563,51.648552 612.943604,48.792236 
z"/>
<path fill="#110E10" opacity="1.000000" stroke="none" 
	d="
M399.304108,52.989891 
	C399.304108,42.379677 399.304108,32.267120 399.304108,21.985710 
	C402.436981,21.985710 405.022339,21.985710 407.996765,21.985710 
	C407.996765,27.248178 407.996765,32.310829 407.996765,37.639183 
	C417.309753,30.901901 425.599548,34.299507 426.572815,45.245739 
	C427.200409,52.304302 426.690735,59.463978 426.690735,66.800018 
	C423.750122,66.800018 421.174164,66.800018 418.113892,66.800018 
	C418.113892,60.662434 418.018768,54.711086 418.149017,48.764671 
	C418.229248,45.102371 417.190277,42.348759 413.112854,42.311432 
	C409.053040,42.274269 407.898010,44.924816 407.987671,48.646420 
	C408.131226,54.604156 408.026093,60.567886 408.026093,66.774628 
	C405.133575,66.774628 402.541168,66.774628 399.304108,66.774628 
	C399.304108,62.362782 399.304108,57.925167 399.304108,52.989891 
z"/>
<path fill="#110E10" opacity="1.000000" stroke="none" 
	d="
M228.787735,62.773705 
	C228.696381,70.846504 223.235031,65.262321 220.120590,67.583305 
	C220.120590,60.648567 220.029251,54.695488 220.154236,48.746956 
	C220.231277,45.080441 219.173965,42.342484 215.090576,42.322311 
	C211.007355,42.302139 209.899689,44.977978 209.990677,48.691410 
	C210.136581,54.646423 210.029785,60.607624 210.029785,66.792908 
	C207.080795,66.792908 204.486420,66.792908 201.595123,66.792908 
	C201.595123,52.008175 201.595123,37.263138 201.595123,22.137264 
	C204.162445,22.137264 206.736954,22.137264 209.708221,22.137264 
	C209.708221,26.972275 209.708221,32.051388 209.708221,37.746563 
	C210.727341,37.236172 211.239960,37.080017 211.629410,36.769432 
	C218.219330,31.513958 226.677292,34.143002 227.953049,42.404266 
	C228.959778,48.923370 228.562439,55.659294 228.787735,62.773705 
z"/>
<path fill="#110E10" opacity="1.000000" stroke="none" 
	d="
M390.788086,60.856567 
	C390.788086,62.985703 390.788086,64.634460 390.788086,66.650925 
	C388.010193,66.650925 385.438995,66.650925 382.114380,66.650925 
	C382.114380,60.961815 382.023865,55.046585 382.147095,49.135815 
	C382.225494,45.375652 381.453278,42.266155 376.986542,42.318375 
	C372.494446,42.370895 371.896790,45.559444 371.988678,49.279724 
	C372.131531,55.061817 372.026428,60.850037 372.026428,66.826187 
	C369.024261,66.826187 366.433441,66.826187 363.571533,66.826187 
	C363.571533,51.943199 363.571533,37.198322 363.571533,22.105995 
	C366.236542,22.105995 368.820099,22.105995 371.757202,22.105995 
	C371.757202,27.013159 371.757202,32.119423 371.757202,38.000385 
	C373.166443,36.939003 373.954926,36.277699 374.807770,35.713688 
	C380.710114,31.810209 388.673828,34.782784 389.898315,41.990166 
	C390.918610,47.995888 390.544556,54.238495 390.788086,60.856567 
z"/>
<path fill="#100D10" opacity="1.000000" stroke="none" 
	d="
M531.035889,36.029396 
	C531.644104,36.458794 532.444702,36.749580 532.842590,36.469093 
	C539.851807,31.527443 547.958191,34.279686 548.968201,42.767754 
	C549.898804,50.589394 549.166138,58.608940 549.166138,66.785370 
	C546.792114,66.785370 544.214722,66.785370 541.145874,66.785370 
	C541.145874,60.850716 541.073181,55.064667 541.172119,49.281559 
	C541.235107,45.598362 540.625916,42.344933 536.132263,42.312553 
	C531.689209,42.280533 530.890076,45.357071 530.990112,49.151844 
	C531.142822,54.944927 531.030151,60.745010 531.030151,66.779572 
	C528.110352,66.779572 525.509766,66.779572 522.297729,66.779572 
	C522.297729,59.358025 522.297729,51.913399 522.297729,44.468777 
	C522.297729,37.159801 522.297729,29.850830 522.297729,22.153408 
	C525.146545,22.153408 527.719482,22.153408 531.040771,22.153408 
	C531.040771,26.463190 531.040771,31.044050 531.035889,36.029396 
z"/>
<path fill="#0D0B0E" opacity="1.000000" stroke="none" 
	d="
M100.305099,33.029770 
	C100.305672,29.076876 100.305672,25.619062 100.305672,21.989140 
	C103.431046,21.989140 106.020988,21.989140 109.038757,21.989140 
	C109.038757,30.583466 109.038757,38.973957 109.038757,48.759663 
	C111.788658,45.076801 114.114159,42.689735 115.569740,39.855846 
	C118.287186,34.565197 122.456345,33.994560 128.004349,35.213856 
	C125.754341,38.201908 123.866379,41.100548 121.573692,43.632736 
	C119.665138,45.740673 119.774292,47.451553 121.087616,49.799263 
	C124.145782,55.266075 126.927940,60.887287 129.758942,66.324966 
	C118.133400,70.756042 117.969971,60.286125 113.197495,53.179886 
	C111.100449,58.222084 109.465179,62.153973 107.551399,66.755501 
	C106.202911,66.755501 103.594513,66.755501 100.304535,66.755501 
	C100.304535,55.716633 100.304535,44.620743 100.305099,33.029770 
z"/>
<path fill="#100E10" opacity="1.000000" stroke="none" 
	d="
M301.029572,61.883537 
	C301.029510,63.815189 301.029510,65.261002 301.029510,66.806488 
	C297.940430,66.806488 295.352112,66.806488 292.527863,66.806488 
	C292.527863,56.168163 292.527863,45.747627 292.527863,35.362667 
	C299.593781,34.069973 300.136871,34.200962 301.524353,37.448887 
	C309.976654,30.811672 318.086182,34.161915 319.635803,44.941177 
	C319.753723,45.761539 319.796173,46.599094 319.797882,47.428818 
	C319.810883,53.736309 319.804993,60.043839 319.804993,66.686813 
	C316.956299,66.686813 314.375610,66.686813 311.149109,66.686813 
	C311.149109,60.902508 311.062836,54.964012 311.180115,49.029541 
	C311.255493,45.213444 310.280060,42.216183 305.880585,42.312260 
	C301.765533,42.402115 300.867523,45.287766 300.996826,48.905006 
	C301.145477,53.064312 301.030273,57.233051 301.029572,61.883537 
z"/>
<path fill="#0C080A" opacity="1.000000" stroke="none" 
	d="
M80.482117,65.605232 
	C72.055679,69.409325 65.528290,66.094398 64.779892,57.372280 
	C64.158615,50.131695 64.652725,42.795406 64.652725,35.138611 
	C67.206047,35.138611 69.784729,35.138611 73.018723,35.138611 
	C73.018723,41.015118 73.093353,47.110985 72.989967,53.203835 
	C72.930573,56.704540 73.885269,59.094906 77.907372,59.117992 
	C81.825974,59.140484 83.080963,56.939476 83.035973,53.369751 
	C82.960701,47.398235 83.015404,41.425083 83.015404,35.109818 
	C85.819786,35.109818 88.378761,35.109818 91.227570,35.109818 
	C91.227570,45.536209 91.227570,55.955082 91.227570,66.852554 
	C88.357391,65.899254 84.243713,69.931442 82.790627,64.094315 
	C82.129036,64.508049 81.467445,64.921783 80.482117,65.605232 
z"/>
<path fill="#0C080A" opacity="1.000000" stroke="none" 
	d="
M575.219299,58.308952 
	C576.040955,55.843849 576.868774,53.665241 576.951721,51.458645 
	C577.156128,46.017262 577.018616,40.563042 577.018616,34.948757 
	C579.960999,34.948757 582.409424,34.948757 585.187134,34.948757 
	C585.187134,45.628353 585.187134,56.175583 585.187134,67.079781 
	C582.288635,65.946800 578.227539,69.305481 576.578064,64.308807 
	C566.384827,70.613365 558.774719,66.641167 558.334961,54.341042 
	C558.110046,48.050396 558.295532,41.745079 558.295532,35.111397 
	C561.229431,35.111397 563.815186,35.111397 567.019165,35.111397 
	C567.019165,40.713242 567.001099,46.483070 567.023926,52.252739 
	C567.049316,58.682072 568.298950,59.674370 575.219299,58.308952 
z"/>
<path fill="#080608" opacity="1.000000" stroke="none" 
	d="
M659.656738,53.048519 
	C659.656982,51.300068 659.718201,49.964409 659.644287,48.636257 
	C658.884216,34.968288 671.230530,32.057590 679.728455,35.154202 
	C686.535156,37.634552 689.112488,45.760479 687.023926,57.400013 
	C685.938965,63.446171 681.365356,67.029175 674.482544,67.224937 
	C664.557373,67.507225 660.196106,63.459892 659.656738,53.048519 
M678.898071,47.104469 
	C678.364197,43.472691 676.001160,41.843933 672.634094,42.325314 
	C669.182617,42.818790 667.707458,45.279388 667.966614,48.791611 
	C668.088074,50.437637 667.938354,52.101864 668.002808,53.754280 
	C668.142578,57.338024 669.975098,59.226170 673.633667,59.140228 
	C677.022217,59.060635 678.816956,57.288029 678.937744,53.912388 
	C679.008667,51.929146 678.948669,49.941212 678.898071,47.104469 
z"/>
<path fill="#0A080A" opacity="1.000000" stroke="none" 
	d="
M137.684311,37.642120 
	C143.095566,33.611176 148.708344,32.532509 154.258179,35.905518 
	C160.839981,39.905731 161.143173,46.716599 161.112183,53.963764 
	C154.538605,53.963764 148.123901,53.963764 141.607712,53.963764 
	C142.883179,59.046566 146.059052,61.576035 150.259521,59.684471 
	C154.771835,57.652473 157.306091,59.033783 159.789505,62.369556 
	C155.696014,66.893364 148.112747,68.743439 142.248917,66.624878 
	C136.551010,64.566254 133.737900,60.179668 133.657318,52.913471 
	C133.598434,47.605869 133.131119,42.148678 137.684311,37.642120 
M152.116623,48.264835 
	C154.345840,44.782738 151.902420,43.099899 149.306381,42.141651 
	C145.495636,40.735035 142.682190,42.956768 141.367294,48.325268 
	C144.727402,48.325268 147.966980,48.325268 152.116623,48.264835 
z"/>
<path fill="#0A090A" opacity="1.000000" stroke="none" 
	d="
M174.108429,58.022339 
	C177.867691,58.433300 181.240723,58.895435 184.621796,58.964687 
	C185.388657,58.980400 186.183411,57.632900 186.965332,56.912872 
	C186.213272,56.180290 185.564590,54.996006 184.690628,54.795944 
	C181.480789,54.061169 178.202911,53.606575 174.938019,53.133675 
	C170.581329,52.502632 168.050247,50.183613 167.690842,45.679070 
	C167.304794,40.840939 168.968002,37.087269 173.678482,35.356533 
	C180.877197,32.711563 187.612656,34.222878 194.272064,38.067513 
	C191.906662,42.088573 190.035156,45.433010 184.378586,42.649017 
	C181.898895,41.428581 178.318939,42.443695 175.238586,42.443695 
	C175.149536,43.381104 175.060501,44.318512 174.971451,45.255920 
	C178.122147,45.834469 181.252991,46.578194 184.427383,46.959469 
	C192.738373,47.957710 196.759659,52.877899 193.924286,59.980091 
	C192.813507,62.762489 189.548553,65.881989 186.723389,66.546432 
	C179.739899,68.188889 172.580673,67.730415 165.815186,62.990536 
	C168.615051,61.140747 168.228302,55.412769 174.108429,58.022339 
z"/>
<path fill="#0E0D12" opacity="1.000000" stroke="none" 
	d="
M502.115601,53.885818 
	C502.118195,51.074291 502.223236,48.735641 502.091187,46.410461 
	C501.984558,44.532379 503.157990,42.077385 499.689392,41.432213 
	C499.121002,41.326496 498.481079,36.450260 499.055176,36.166245 
	C504.001648,33.719387 501.236847,28.986406 502.510651,25.352642 
	C505.199554,25.352642 507.779816,25.352642 510.212372,25.352642 
	C512.707458,28.344383 507.609192,34.352211 514.713928,35.250744 
	C514.713928,37.182434 514.713928,39.145256 514.713928,41.375072 
	C513.596069,41.657471 512.386780,41.962978 510.735352,42.380173 
	C512.159302,48.095669 508.424622,54.701374 513.217041,59.641876 
	C513.720276,59.555119 514.223572,59.468361 514.726807,59.381603 
	C514.726807,61.678730 514.726807,63.975857 514.726807,66.297661 
	C505.510437,68.990540 502.120361,65.808441 502.115601,53.885818 
z"/>
<path fill="#0E0D13" opacity="1.000000" stroke="none" 
	d="
M282.684875,34.791084 
	C283.601196,35.405491 284.439484,35.994923 284.444336,36.591133 
	C284.525360,46.546825 284.502136,56.503368 284.502136,66.741127 
	C281.607391,66.741127 279.039307,66.741127 276.189301,66.741127 
	C276.189301,56.219975 276.189301,45.679760 276.189301,34.769260 
	C278.310974,34.769260 280.264984,34.769260 282.684875,34.791084 
z"/>
<path fill="#0E0D13" opacity="1.000000" stroke="none" 
	d="
M646.038574,67.023376 
	C645.018311,66.393028 643.996399,65.770798 643.989990,65.138283 
	C643.889282,55.189220 643.919312,45.238842 643.919312,35.024372 
	C646.814697,35.024372 649.387329,35.024372 652.250244,35.024372 
	C652.250244,45.524860 652.250244,55.933216 652.250244,67.026718 
	C650.331299,67.026718 648.420288,67.026718 646.038574,67.023376 
z"/>
<path fill="#070203" opacity="1.000000" stroke="none" 
	d="
M493.470062,47.002686 
	C493.469543,53.809643 493.469543,60.117744 493.469543,66.714409 
	C490.772186,66.714409 488.184631,66.714409 485.263092,66.714409 
	C485.263092,56.298931 485.263092,45.788555 485.263092,35.033623 
	C487.877716,35.033623 490.435486,35.033623 493.470581,35.033623 
	C493.470581,38.968159 493.470581,42.735992 493.470062,47.002686 
z"/>
<path fill="#19171B" opacity="1.000000" stroke="none" 
	d="
M437.007202,67.044601 
	C435.685944,66.069176 434.356842,65.212975 434.072357,64.091713 
	C433.648651,62.422009 433.962494,60.565151 433.962494,58.526878 
	C436.941681,58.526878 439.480682,58.526878 442.292267,58.526878 
	C442.292267,61.313427 442.292267,63.880455 442.292267,66.810417 
	C440.642181,66.890709 439.054443,66.967972 437.007202,67.044601 
z"/>
<path fill="#1C1B1F" opacity="1.000000" stroke="none" 
	d="
M636.585144,61.291973 
	C636.585144,63.342148 636.585144,64.961395 636.585144,66.814323 
	C633.568237,66.814323 631.005493,66.814323 628.197266,66.814323 
	C628.197266,64.117134 628.197266,61.533192 628.197266,58.423923 
	C631.040100,59.433910 634.911621,55.342545 636.585144,61.291973 
z"/>
<path fill="#110F12" opacity="1.000000" stroke="none" 
	d="
M484.905762,26.935062 
	C484.904816,25.021812 484.904816,23.588345 484.904816,21.963661 
	C487.914948,21.963661 490.470032,21.963661 493.279327,21.963661 
	C493.279327,24.546787 493.279327,26.951023 493.279327,29.931074 
	C490.410919,29.084826 486.595490,32.836559 484.905762,26.935062 
z"/>
<path fill="#101015" opacity="1.000000" stroke="none" 
	d="
M652.547546,27.752226 
	C649.960327,29.083416 647.366394,29.970112 644.191406,31.055454 
	C644.191406,27.343300 644.191406,24.810122 644.191406,22.010462 
	C646.794373,22.010462 649.349915,22.010462 652.540894,22.010462 
	C652.540894,23.809645 652.540894,25.558689 652.547546,27.752226 
z"/>
<path fill="#101015" opacity="1.000000" stroke="none" 
	d="
M275.944336,23.098650 
	C278.598511,22.237333 281.228302,21.855658 284.240417,21.418493 
	C284.240417,24.601227 284.240417,27.128695 284.240417,29.889153 
	C281.529755,29.889153 278.975433,29.889153 275.919922,29.889153 
	C275.919922,27.737959 275.919922,25.658125 275.944336,23.098650 
z"/>
<path fill="#FDFCEB" opacity="1.000000" stroke="none" 
	d="
M46.941696,40.978691 
	C47.025246,49.314453 47.108795,57.650215 47.233883,66.447479 
	C43.045757,64.157333 45.411087,60.112617 45.325020,56.592731 
	C45.217514,52.195663 45.369144,47.792263 45.082191,43.107376 
	C44.827888,42.419750 44.900303,42.016342 45.366096,41.312260 
	C46.153553,41.000622 46.547623,40.989658 46.941696,40.978691 
z"/>
<path fill="#FCFDFC" opacity="1.000000" stroke="none" 
	d="
M47.033577,40.652504 
	C46.547623,40.989658 46.153553,41.000622 45.463902,41.020168 
	C45.519630,40.436893 45.870937,39.845036 46.222244,39.253181 
	C46.523315,39.610893 46.824387,39.968605 47.033577,40.652504 
z"/>
<path fill="#F3F4F2" opacity="1.000000" stroke="none" 
	d="
M345.825562,45.718529 
	C345.922119,48.802235 345.836945,51.467651 345.984955,54.120056 
	C346.168701,57.412678 344.477051,59.350616 341.478424,59.546192 
	C338.199768,59.760029 336.237732,57.746376 336.030579,54.395439 
	C335.897461,52.242001 335.498230,49.917831 336.119568,47.955563 
	C336.792419,45.830452 338.170807,42.965858 339.878632,42.421036 
	C341.376831,41.943081 343.756805,44.229225 345.825562,45.718529 
z"/>
<path fill="#F4F4F2" opacity="1.000000" stroke="none" 
	d="
M466.720276,43.491066 
	C467.272888,47.904678 467.979004,52.029827 467.623291,56.061287 
	C467.506775,57.382183 464.601715,59.430702 463.027954,59.380707 
	C461.391724,59.328735 458.798096,57.379234 458.440063,55.837521 
	C457.708557,52.687847 457.765900,49.185204 458.291809,45.957222 
	C458.916748,42.121620 461.945679,41.287231 466.720276,43.491066 
z"/>
<path fill="#F1F5F0" opacity="1.000000" stroke="none" 
	d="
M612.941162,49.225479 
	C612.877563,51.648552 613.497986,54.069263 612.581665,55.518414 
	C611.452515,57.304379 609.093445,59.187050 607.170654,59.292500 
	C605.867188,59.363987 603.894958,56.651245 603.152954,54.808716 
	C602.461365,53.091473 603.023865,50.878227 602.992249,48.884003 
	C602.939392,45.552105 603.089111,42.143700 607.519714,42.067547 
	C611.867554,41.992817 612.959900,45.070877 612.941162,49.225479 
z"/>
<path fill="#F4F6F2" opacity="1.000000" stroke="none" 
	d="
M678.922852,47.529930 
	C678.948669,49.941212 679.008667,51.929146 678.937744,53.912388 
	C678.816956,57.288029 677.022217,59.060635 673.633667,59.140228 
	C669.975098,59.226170 668.142578,57.338024 668.002808,53.754280 
	C667.938354,52.101864 668.088074,50.437637 667.966614,48.791611 
	C667.707458,45.279388 669.182617,42.818790 672.634094,42.325314 
	C676.001160,41.843933 678.364197,43.472691 678.922852,47.529930 
z"/>
<path fill="#F2F6F3" opacity="1.000000" stroke="none" 
	d="
M151.661591,48.295052 
	C147.966980,48.325268 144.727402,48.325268 141.367294,48.325268 
	C142.682190,42.956768 145.495636,40.735035 149.306381,42.141651 
	C151.902420,43.099899 154.345840,44.782738 151.661591,48.295052 
z"/>
</svg>